<?xml version="1.0" encoding="utf-8"?>
<!-- Generator: Adobe Illustrator 19.0.0, SVG Export Plug-In . SVG Version: 6.00 Build 0)  -->
<svg version="1.1" id="Layer_1" xmlns="http://www.w3.org/2000/svg" xmlns:xlink="http://www.w3.org/1999/xlink" x="0px" y="0px"
	 viewBox="0 0 257.2 78.8" style="enable-background:new 0 0 257.2 78.8;" xml:space="preserve">
<style type="text/css">
	.st0{fill:#FFFFFF;}
	.st1{fill:#EE6348;}
	.st2{fill:#EE7861;}
	.st3{fill:#EE7567;}
	.st4{fill:#F2907F;}
	.st5{fill:#EE644D;}
	.st6{fill:#3E3F40;}
	.st7{fill:#F1D673;}
	.st8{fill:#FAFBF6;}
	.st9{fill:#F9FAF3;}
	.st10{fill:#464747;}
	.st11{fill:#F0715D;}
	.st12{fill:#4D4E4E;}
	.st13{fill:#4E4F4E;}
	.st14{fill:#EF6B55;}
	.st15{fill:#F1D87D;}
	.st16{fill:#F0705C;}
	.st17{fill:#EE6E58;}
	.st18{fill:#505151;}
	.st19{fill:#F2DD8D;}
	.st20{fill:#7E807F;}
	.st21{fill:#F29582;}
	.st22{fill:#535353;}
	.st23{fill:#F3A594;}
	.st24{fill:#535454;}
	.st25{fill:#909290;}
	.st26{fill:#F4E099;}
	.st27{fill:#F09E8F;}
	.st28{fill:#F39A86;}
	.st29{fill:#898989;}
	.st30{fill:#575858;}
	.st31{fill:#F09783;}
	.st32{fill:#F28978;}
	.st33{fill:#757777;}
	.st34{fill:#F1A08F;}
	.st35{fill:#484848;}
	.st36{fill:#F19685;}
	.st37{fill:#EF8A77;}
	.st38{fill:#EE7963;}
	.st39{fill:#989898;}
	.st40{fill:#7B7C7C;}
	.st41{fill:#F1917B;}
	.st42{fill:#EF7662;}
	.st43{fill:#F0D674;}
	.st44{fill:#525252;}
	.st45{fill:#616161;}
	.st46{fill:#828282;}
	.st47{fill:#545455;}
	.st48{fill:#EF735E;}
	.st49{fill:#EF8672;}
	.st50{fill:#F3DF97;}
	.st51{fill:#555656;}
	.st52{fill:#464646;}
	.st53{fill:#6A6A6A;}
	.st54{fill:#EF9682;}
	.st55{fill:#585958;}
	.st56{fill:#F17D69;}
	.st57{fill:#454545;}
	.st58{fill:#EE7F6D;}
	.st59{fill:#F1DD8C;}
	.st60{fill:#F27D69;}
	.st61{fill:#6B6C6C;}
	.st62{fill:#F27B65;}
	.st63{fill:#7D7D7D;}
	.st64{fill:#F27B6A;}
	.st65{fill:#F07762;}
	.st66{fill:#494A49;}
	.st67{fill:#F0DB81;}
	.st68{fill:#F3A48D;}
	.st69{fill:#414141;}
	.st70{fill:#7A7A7A;}
	.st71{fill:#464847;}
	.st72{fill:#EF6C55;}
	.st73{fill:#4B4B4B;}
	.st74{fill:#444645;}
	.st75{fill:#363738;}
	.st76{fill:#EE7E6B;}
	.st77{fill:#3D3D3D;}
	.st78{fill:#EE6E59;}
	.st79{fill:#EE715C;}
	.st80{fill:#F08572;}
	.st81{fill:#EE6C56;}
	.st82{fill:#F4A999;}
	.st83{fill:#F2A99A;}
	.st84{fill:#F18A76;}
	.st85{fill:#F0806C;}
	.st86{fill:#F3A291;}
	.st87{fill:#F49E8E;}
	.st88{fill:#F09580;}
	.st89{fill:#F1917D;}
	.st90{fill:#F3A799;}
	.st91{fill:#F07663;}
	.st92{fill:#EE816B;}
	.st93{fill:#EE7F69;}
	.st94{fill:#F0A48F;}
	.st95{fill:#EC5B3B;}
	.st96{fill:#F16D5B;}
	.st97{fill:#484948;}
	.st98{fill:#828383;}
	.st99{fill:#9A9B9B;}
	.st100{fill:#676867;}
	.st101{fill:#393C3B;}
	.st102{fill:#353536;}
	.st103{fill:#A2A2A2;}
	.st104{fill:#6A6A6B;}
	.st105{fill:#9B9C9C;}
	.st106{fill:#626464;}
	.st107{fill:#545554;}
	.st108{fill:#353435;}
	.st109{fill:#8D8D8D;}
	.st110{fill:#838384;}
	.st111{fill:#909092;}
	.st112{fill:#5A5A5B;}
	.st113{fill:#9A9B9D;}
	.st114{fill:#5A5A5A;}
	.st115{fill:#7E7E7F;}
	.st116{fill:#555655;}
	.st117{fill:#3C3C3B;}
	.st118{fill:#F9FAF4;}
	.st119{fill:#F7F0D3;}
	.st120{fill:#F8F4E2;}
	.st121{fill:#F4E2A0;}
	.st122{fill:#F2DA7A;}
	.st123{fill:#F2DF92;}
	.st124{fill:#EAD181;}
	.st125{fill:#F2DF95;}
	.st126{fill:#444545;}
	.st127{fill:#717171;}
	.st128{fill:#787878;}
	.st129{fill:#EF7661;}
	.st130{fill:#9FA1A0;}
	.st131{fill:#494A4A;}
	.st132{fill:#A1A3A1;}
	.st133{fill:#5B5D5C;}
	.st134{fill:#656766;}
	.st135{fill:#828484;}
	.st136{fill:#A3A5A4;}
</style>
<g>
	<path class="st0" d="M217,54.2c-1.8,0.5-1.9,0.5-1.9-0.9c0-8.7,0-17.5,0-26.2c0-0.2,0.2-0.5,0.2-0.7c0.5,0.7,0.2,1.4,0.2,2.1
		c0,8.2,0,16.5,0,24.3c0.1,0.7,0.5,0.3,0.2,0.4c-0.1,0.1-0.1,0-0.1-0.2c-0.2-1.9-0.1-3.8-0.1-5.8c0-6.4,0-12.8,0-19.2
		c0-0.7,0.2-1.3-0.2-2c0.5-2.6,2.4-4.2,5.2-4.4c3.6-0.2,6.4,1.5,7.9,5c2.3,5.2,4.4,10.4,6.6,15.7c0.3,0.7,0.6,1.5,1,2.4
		c1.1-1.2,1.6-2.7,2.2-4c2.6-5,5-10,7.6-15c1.7-3.2,3.8-4.4,6.7-4c2.7,0.4,4.4,2.2,4.4,4.9c0,8.8,0,17.7,0,26.5c0,1-0.3,1.4-1.4,1.4
		c-1.7-0.1-3.5-0.1-5.2,0c-1.4,0.1-1.8-0.4-1.8-1.8c0.1-7,0-13.9,0-20.9c0-0.5,0-1.1,0-1.6c0-0.5-0.1-1.1-0.7-1.3
		c-0.7-0.2-1.2,0.1-1.6,0.6c-0.7,1.1-1.3,2.2-1.9,3.3c-3.4,6.7-6.8,13.3-10.2,20c-0.5,0.9-0.8,1.9-2,2c-1.4,0-1.7-1.2-2.1-2.1
		c-2.9-6.8-5.8-13.6-8.6-20.5c-0.2-0.4-0.4-0.9-0.6-1.3c-0.4-0.9-0.9-1.6-2.1-1.6c-1.2,0-1.6,0.7-2,1.6c-0.4,0.3-0.3,0.7-0.3,1.1
		c0,7.1,0,14.3,0,21.4C216.8,53.7,216.9,53.9,217,54.2z"/>
	<path class="st0" d="M131.8,21.9c4.2-0.3,7.9,1.3,11.1,4.3c0.5,0.5,1.1,0.9,0.2,1.8c-0.8,0.8-1.2,0.4-1.8-0.2
		c-2.2-2.3-4.9-3.4-8-3.6c-5.1-0.2-8.9,2.3-10.7,7.1c-1.6,4.3-1.7,8.9-0.6,13.2c1.9,7.6,10.4,10.7,17.1,6.5c1.3-0.8,2.5-1.8,3.6-2.8
		c0.7-0.7,1.1-0.4,1.6,0.1c0.6,0.5,0.6,0.9,0,1.5c-5,5.3-11.2,6.7-18,5c-6.9-1.7-11.7-5.8-13.1-13.1c-1.6-8.3,3.7-16.5,12.2-18.9
		C127.5,22.2,129.5,21.9,131.8,21.9z"/>
	<path class="st0" d="M209.4,43.8c-0.1,4.7-3.1,8.8-7.8,10.3c-5.4,1.7-10.7,1.2-15.6-1.7c-3.4-2-5.4-5-5.4-9c0.4-5,0.1-9.9,0.1-14.9
		c0-1.8,0.2-3.7-0.2-5.5c2.5-1,5-0.3,7.6-0.4c0.9,0,0.5,1.1,0.5,1.7c0,6.4,0,12.8,0,19.3c0.1,4.7,2.6,7.8,7.1,8.7
		c4.7,1,9.3-1.2,11.1-5.2c0.6-1.4,0.7-2.8,0.7-4.3c0-6.2,0-12.4,0-18.7c0-1.3,0.4-1.7,1.6-1.4c0.4,1.6,0.1,3.2,0.2,4.7
		C209.3,32.8,209,38.3,209.4,43.8z"/>
	<path class="st0" d="M164.8,39.5c0,4.4,0,8.8,0,13.2c0,1.3-0.3,1.9-1.7,1.8c-1.7-0.1-3.3-0.1-5,0c-1.4,0.1-1.6-0.5-1.6-1.7
		c0-8.8,0-17.6,0.1-26.5c0-1.6-0.5-2-2-1.9c-2.3,0.1-4.7,0-7,0c-0.8,0-1.5,0.1-1.4-1.1c0-1.1,0.7-0.9,1.4-0.9c8.8,0,17.6,0,26.5,0
		c0.6,0,1.4-0.3,1.4,0.9c0,1.1-0.5,1.2-1.4,1.1c-2.4,0-4.8,0.1-7.2,0c-1.4-0.1-2,0.3-1.9,1.8C164.9,30.7,164.8,35.1,164.8,39.5z"/>
	<path class="st0" d="M215.4,26.1c0.5,0.4,0.4,1,0.4,1.5c0,8.5,0,17,0,25.5c0,0.3-0.1,0.5-0.5,0.7c0-9.1,0-18.3,0-27.4
		C215.3,26.3,215.3,26.2,215.4,26.1z"/>
	<path class="st0" d="M217,54.2c-0.5-0.4-0.3-1-0.3-1.5c0-6.7,0-13.4,0-20.1c0-0.6-0.2-1.2,0.5-1.6c0,7.4,0,14.7,0,22.1
		C217.1,53.4,217,53.8,217,54.2z"/>
	<path class="st0" d="M209.4,43.8c-0.6-0.6-0.4-1.4-0.4-2.1c0-6.4,0-12.8,0-19.2c0.5,0,0.5,0.4,0.5,0.7
		C209.5,30.1,209.4,36.9,209.4,43.8z"/>
	<path class="st0" d="M180.5,22.9c0.4,0.3,0.4,0.8,0.4,1.3c0,6,0,11.9,0,17.9c0,0.5,0,0.9-0.4,1.3C180.5,36.5,180.5,29.7,180.5,22.9
		z"/>
	<path class="st0" d="M87.3,38.9c-0.2,0.7-0.5,1.4-0.7,2C86.1,40.1,85.3,39,87.3,38.9z"/>
	<path class="st0" d="M89.7,31.7c-0.1,0.7-0.3,1.4-0.7,2C87.5,32.5,89,32.2,89.7,31.7z"/>
	<path class="st0" d="M91.3,26.9c0,0.8-0.2,1.6-0.8,2.3C90.2,28.2,90.4,27.4,91.3,26.9z"/>
	<path class="st0" d="M87.7,37.3c0.1,0.5,0,0.9-0.3,1.3c0-0.5-0.9-0.7-0.5-1.3C87.1,36.9,87.4,37.2,87.7,37.3z"/>
	<path class="st0" d="M88.9,34.1c-0.1,0.7-0.3,1.5-0.7,2.1C88.3,35.5,87.6,34.5,88.9,34.1z"/>
	<path class="st0" d="M112.1,53.2c-3.5-9.6-6.8-19.2-10.3-28.8c-0.8-2.2-2.4-3.2-4.8-3.3c-3.1,0-4.6,1.5-5.7,5.8
		c-0.4,0.7-0.5,1.5-0.8,2.3c-0.6,0.7-0.6,1.7-0.8,2.5c-0.5,0.6-0.9,1.2-0.7,2c0,0.1-0.1,0.2-0.1,0.4c-0.6,0.6-0.4,1.4-0.7,2.1
		c-0.2,0.4-0.3,0.7-0.5,1.1c-0.5,0.3-0.1,0.9-0.3,1.3c0,0.1,0,0.2-0.1,0.3c-0.7,0.5-0.6,1.3-0.7,2c-0.4,1.1-0.8,2.3-1.2,3.4
		c-0.9,2.7-2.2,5.4-2.9,8.2c-0.1,0.7-0.2,1.3-0.3,2c2,0.4,3-0.5,3.4-2.5c0.3-1.2,0.9-2.2,1.1-3.4c0.3-1.5,1.1-1.8,2.5-1.8
		c3.6,0.1,7.2,0.2,10.8,0c2.2-0.2,3,0.7,3.6,2.6c1.7,5.3,1.8,5.3,7.3,5.1C112.1,54.5,112.5,54.3,112.1,53.2z M89.7,44.2
		c-1,0-1.3-0.2-0.9-1.3c1.5-4.1,2.8-8.3,4.3-12.5c0.3-0.9,0.6-2,1.9-2c1.4,0,1.6,1.2,2,2.2c1.6,4.5,3.2,8.9,4.8,13.6
		C97.6,44.2,93.6,44.2,89.7,44.2z"/>
	<path class="st0" d="M207.9,43.2c0-6.6,0-13.2,0-19.8c0.1,0,0.1,0,0.2,0c0,6.6,0,13.3,0,19.9C208,43.3,207.9,43.3,207.9,43.2z"/>
</g>
<g>
	<path class="st1" d="M38.2,0c2.7,0,5.3,0,8,0c0.1,0.2,0.1,0.4-0.2,0.6c-0.4,0.2-0.9,0.3-1.3,0.3c-1.6,0-3.2,0-4.7,0
		c-0.6,0-1.1,0-1.7-0.3C38.2,0.5,38.1,0.3,38.2,0z"/>
	<path class="st2" d="M49.5,0.3c0.5,0.2,1.1,0.4,1.6,0.5c0.1,0.1,0.1,0.3,0,0.4c-0.1,0.1-0.3,0.2-0.4,0.3c-0.3,0.1-0.7,0.2-1,0.1
		c-0.6-0.4-1.3-0.4-1.9-0.8c-0.1-0.2,0-0.3,0.1-0.5C48.4,0.3,48.9,0.3,49.5,0.3z"/>
	<path class="st3" d="M47.9,0.3c0,0.1,0,0.2,0,0.3c-0.7,0.7-1.2,0.3-1.6-0.3c0-0.1,0-0.2,0-0.3C46.8,0,47.4-0.1,47.9,0.3z"/>
	<path class="st4" d="M38.2,0c0,0.1,0,0.3,0,0.4c0.1,0.2,0.1,0.3,0,0.5C38,1.1,37.7,1.1,37.4,1c-0.4-0.1-0.7-0.3-0.9-0.7
		c0.1-0.1,0.1-0.2,0.2-0.3C37.2,0,37.7,0,38.2,0z"/>
	<path class="st5" d="M49.9,1.6c0.3-0.1,0.6-0.3,0.9-0.4c0.6,0.4,1.3,0.3,2,0.5C53.4,2,54,2.4,54.7,2c0.1,0,0.2,0,0.3,0
		c0.4,0.4,0.8,0.7,1.2,0.9c0.7,0.2,1.2,0.8,2,0.7c0.1,0,0.2,0,0.4,0c0.4,0.3,0.7,0.7,1.2,0.9c0.8,0.3,1.4,0.8,2.1,1.2
		c0.4,0.1,0.9,0.2,1.2,0.4c0.4,0.4,0.8,0.9,1.3,1.1c0.4,0.2,0.6,0.5,0.9,0.9c0.4,0.5,0.8,0.9,1.2,1.3c0.5,0.5,0.9,1.1,1.7,1.1
		c0.2,0,0.3,0.1,0.5,0.2l0,0c0.6,0.4,0.8,1.1,1.1,1.7l0,0c0.6,0.4,0.7,1,0.9,1.6c0.5,1.3,1.7,2.1,2.4,3.2c0.7,0.3,0.9,1,1.2,1.7l0,0
		c1,0.5,0.9,1.5,1.3,2.3c0,0.2,0.1,0.5,0.1,0.7c0.2,0.5-0.1,0.6-0.5,0.7c-0.6,0.6,0,1.2,0,1.8c0.7,2.8,2.3,5.4,2,8.8
		c-1-1.7-1.2-3.5-1.9-5.1c-3.9-9.6-9.9-17.6-19.9-21c-12.1-4.1-24-2.6-33.9,6C12.3,21.3,8.3,31.6,11.7,44c1.1,3.9,2.8,7.5,5.5,10.6
		c5.5,6.3,15.8,8.7,23.9,3.6c4.7-3,6.2-9.4,4.9-13.9c-0.1-0.4-0.6-0.8-0.1-1.3c0.8,0.1,0.6,1,1.1,1.3c0.6,0.6,0.9,1.4,1.2,2.3
		c0.1,0.3,0,0.6,0,0.9c-0.3,0.8-0.2,1.6,0,2.5c0.1,0.4,0.1,0.7-0.1,1.1c-0.4,0.6-0.6,1.3-0.9,2c-0.1,0.3-0.2,0.5-0.6,0.6
		c0.4-0.1,0.5-0.5,0.7-0.9c0.2-0.3,0.5-0.4,0.8-0.4c0.9,0.3,0.8,0.9,0.5,1.5c-2.1,6.5-7.2,8.9-13.4,10c-3.1,0.5-6.1,0.3-9.1,0
		c-0.3-0.4-1,0-1.3-0.4c0-0.3,0.2-0.5,0.4-0.6c0.4-0.1,0.9,0.2,1.6-0.1c-0.8,0.3-1.2,0-1.7,0c-1.4,0.1-2.6-0.7-4-0.7
		c-0.3-0.1-0.7-0.2-1-0.3c-0.2-0.1-0.4-0.3-0.6-0.4c-0.2-0.2-0.4-0.5-0.7-0.7c-0.1-0.1-0.3-0.2-0.4-0.2c-0.4-0.2-0.9-0.4-1.4-0.7
		c-0.7-0.5-1.4-1-2.1-1.5c-0.4-0.4-0.8-0.6-1.2-1c-0.3-0.3-0.5-0.7-0.7-1.1c-0.3-0.6-0.8-0.9-1.4-1c-0.3-0.1-0.5-0.2-0.7-0.4
		c-0.5-0.8-1.1-1.6-1.6-2.3c-0.3-0.5-0.6-1-0.9-1.5c-0.2-0.4-0.3-0.8-0.4-1.1c0-0.2-0.1-0.3-0.1-0.5c0-0.2,0.1-0.5,0-0.7
		c0-0.2-0.1-0.5-0.1-0.7c0.1-0.7,0-1.4-0.4-2.1c-0.2-0.4-0.5-0.7-0.8-1.1c-0.1-0.2-0.2-0.3-0.2-0.5c-0.2-0.5-0.3-1.1-0.2-1.7
		c0.1-1.1-0.3-2.1-0.2-3.1c0-0.7,0-1.4-0.2-2C6,36.9,6,36.5,6,36c0-0.9,0-1.7,0-2.6c0-0.3,0.1-0.6,0.1-0.9c0.2-0.7,0.3-1.4,0.2-2.1
		c-0.1-1.2,0.4-2.4,0.5-3.6c0-0.2,0.1-0.4,0.1-0.6c0.2-0.6,0.4-1.3,0.8-1.8c0.4-0.6,0.6-1.3,0.8-2c0.2-0.6,0.5-1.2,0.9-1.7
		c0.3-0.4,0.5-0.8,1.1-0.8c0.3-0.1,0.7,0.5,0.9-0.1c0.3-0.7,0.5-1.4,0.4-2.1c0.6-2,2.3-3.1,3.7-4.6c2.3-2,4.7-3.6,7.2-5.3
		c0.6-0.3,1.1-0.6,1.7-0.9c1-0.5,1.9-1,2.9-1.4c1-0.4,2.1-0.5,2.7-1.5c0.9-1,2.2-0.9,3.3-1.1c0.8,0,1.6-0.3,2.4-0.2
		c0.3,0-0.1,0,0.2,0c0-0.1-0.2-0.1-0.2-0.1c-0.3-0.3-0.5-0.6-0.2-1c0.3-0.2,0.5-0.3,0.9-0.3c0.9,0,1.7,0,2.5-0.3
		c0.9-0.1,1.8,0,2.7,0c0.9,0,1.9,0,2.8,0C46.2,0.8,48.1,1,49.9,1.6z"/>
	<path class="st6" d="M29.8,15.6c0.6-0.2,0.8-1,1.5-0.9c0.1-0.1,0.3-0.2,0.4-0.3c0.6-0.2,1.1-0.4,1.7-0.6c0.3-0.1,0.5-0.1,0.8,0
		c0.4,0.1,0.9,0.2,1.3,0.3c1.4,0,2.7-0.2,4-0.5c0.9-0.1,1.7-0.2,2.5,0.2c0.2,0.1,0.3,0.3,0.3,0.5c0,0.2-0.1,0.4-0.2,0.6
		c-0.7,0.2-1.4,0.1-2.1,0.1c-0.3,0.1,0,0.2,0,0.2c0.8-0.5,1.7,0.1,2.5-0.4c1.8-0.5,3.6,0.2,5.1,0.2c-0.2,0.1-0.7,0.2-1.1-0.4
		c0-0.3,0.2-0.6,0.5-0.8c0.7-0.4,1.4-0.4,2.1-0.2c0.6,0.2,1.3,0.3,1.9,0.2c0.2,0,0.4,0,0.5,0c1.1,0.4,2.2,0.8,3.4,1.1
		c0.6,0.2,1.1,0.5,1.7,0.2c0.4-0.1,0.7,0.1,1,0.3c0.6,0.5,1.3,0.9,2,1.2c0.5,0.3,1,0.7,1.6,0.8c0.2,0,0.3,0.1,0.5,0.2
		c0.4,0.4,0.7,1,1.3,1c0.8,0.3,1.3,0.9,1.7,1.5c0.5,0.7,1,1.4,1.6,2c0.1,0.1,0.2,0.3,0.3,0.4c0.4,0.6,0.8,1.2,1.2,1.8
		c0.3,0.5,0.6,1,0.9,1.5c1.7,2.8,2.3,6,3.3,9c0.3,1.1,0.4,2.2,0.6,3.2c0.1,0.4,0.1,0.8,0,1.2c-0.3,1.1-0.4,2.1,0.1,3.2
		c0.1,0.2,0.1,0.4,0.1,0.5c-0.4,0.6-0.5,1.2,0.1,1.8c0.3,0.6,0.3,1.3,0.4,1.9c0,0.6-0.2,1.2-0.1,1.7c-0.1,0.4-0.2,0.8-0.3,1.1
		c-0.2,0.7-0.1,1.3-0.1,2c-0.2,0.5-0.6,1-0.4,1.4c0-0.3,0.1-0.9,0.4-1.4c0-0.6,0-1.1,0-1.7c0.2-0.5,0.2-1,0.4-1.4
		c0.1-0.4-0.1-0.8,0.2-1.2c0.2-0.1,0.4,0,0.6,0.2c0.5,0.8,0.3,1.7,0.3,2.5c0,0.4-0.1,0.8-0.1,1.2c-0.2,0.7-0.3,1.4-0.1,2.2
		c0.1,0.4,0.1,0.7-0.1,1.1c0,0.2-0.1,0.4-0.1,0.5c-0.5,0.7-0.8,1.6-1,2.4c-0.3,0.7-0.5,1.3-0.7,2c0,0.2-0.1,0.3-0.2,0.5
		c-0.3,0.5-0.5,1.1-0.7,1.7c-0.1,0.4-0.2,0.9-0.4,1.2c-0.3,0.3-0.5,0.7-0.8,1c-0.1,0.1-0.3,0.2-0.4,0.4c-0.4,0.5-1,1-0.9,1.8
		c-0.1,0.6-0.7,0.8-1.1,1.1c-0.8,0.7-1.6,1.4-2.3,2c-0.1,0.1-0.2,0.2-0.3,0.3c-0.1,0.1-0.2,0.2-0.2,0.3c-0.1,0.1-0.1,0.2-0.2,0.3
		c-0.1,0.2-0.3,0.3-0.4,0.4c-0.2,0.1-0.4,0.1-0.5,0.3c-0.3,0.1-0.6,0.2-0.9,0.4c-0.4,0.5-1,0.9-1.5,1.2c-0.1,0-0.2,0.1-0.4,0.1
		c-0.5,0.6-1.2,0.9-1.9,1.1c-0.6,0.4-1.1,0.8-1.9,0.7c-0.6,0.2-1.2,0.4-1.5,1c-0.4,0.9-1.2,0.7-2,0.8c-0.7,0-1.4,0.3-2.1,0.4
		c-0.6,0.6-1.5,0-2.1,0.4c-2.2,0.2-4,1.8-6.3,1.7c-0.4,0.2-0.8,0.2-1.2,0.3c-0.7,0-1.3,0-1.3-1c0.1-0.2,0.2-0.3,0.5-0.4
		c0.8-0.2,1.5-0.5,2.4-0.4c0.6-0.3,1.2-0.5,1.6-0.4c-0.4-0.1-1,0-1.6,0.4c-0.8-0.1-1.6,0.2-2.4,0.4c-1,0.6-2.1-0.3-3.2,0.1
		c-0.6,0-1.3,0.1-1.9,0.1c-1.9,0.2-3.7,0.8-5.6,0c0.7-0.8,0.7-0.8,2.3-0.8c8.4-0.3,16.3-2.8,23.7-6.5c8.9-4.4,12.7-12,13.2-21.6
		c0.3-5.5-0.1-10.9-2.4-15.9c-3.7-7.8-9.3-13.3-18.5-14.3c-5.1-0.5-10-0.6-15.1,0.7c-10.8,2.9-14.3,16.4-9.2,25c2,3.4,5,5,8.6,5.7
		c1.5,0.3,2.9,0.2,4.4,0c0.2,0,0.4-0.1,0.6-0.1c0.4-0.1,0.6,0,0.5,0.4c-0.1,0.1-0.2,0.1-0.4,0.2c-0.4,0.4-0.7,0.7-1.3,0.8
		c-0.7,0.1-1.4,0.1-2.1,0.3c-0.8,0.2-1.6,0.2-2.4,0c-0.6-0.2-1.3-0.3-2-0.3c-0.6,0-1.2-0.3-1.8-0.1c-1.7,0.3-2.5-1.2-3.7-1.9
		c-0.5-0.7-1.1-1.2-1.7-1.7c-1.7-2.2-2.5-4.9-3.2-7.6c-0.1-0.7-0.3-1.5-0.2-2.3c0.2-0.9-0.4-1.8-0.1-2.6c0-0.4-0.2-0.1-0.2-0.1
		c0.2,0.8,0.3,1.6,0.1,2.3c-0.1,0.2-0.3,0.2-0.5,0.1c-0.5-3.4,0.2-6.7,0.7-10c-0.2-0.3,0-0.5,0.3-0.6c0.3-0.2,0.7,0.6,0.9-0.1
		c0.4-0.7,0.6-1.4,1-2.1c0.3-0.5,0.5-1,0.5-1.6c0-0.1,0-0.2,0-0.2c0.1-0.2,0.2-0.3,0.3-0.4c0.1,0,0.2,0,0.4,0c0,0,0.1,0,0.1,0
		c0,0.3-0.4-0.1-0.2,0c-0.1-0.1-0.1-0.3-0.1-0.5c0.1-0.3,0.3-0.6,0.6-0.8c0.9-0.6,1.5-1.3,2.1-2.1c0.4-0.4,0.7-0.7,1-1.1
		c0.2-0.2,0.5-0.4,0.8-0.5c0.2,0,0.4,0,0.6-0.1c0.1-0.1,0.2-0.1,0.3-0.2c0.1-0.2,0.2-0.3,0.3-0.5c0.1-0.1,0.1-0.3,0.1-0.4
		c0-0.1,0.1-0.3,0.2-0.4C29.6,15.5,29.7,15.5,29.8,15.6z"/>
	<path class="st7" d="M27.8,70.3c3.6,0.2,7.2,0.7,10.8,0c9.8-1.7,19.4-8.7,21.5-19c0.9-4.3,0.8-8.6-0.3-12.9
		c-1.7-6.4-6-10.3-12.7-11c-4.7-0.5-9.3-0.2-13.4,2.7c-1.4,1-2.5,2.1-3.3,3.6c-0.7,1.4-1,2.9-2.2,4c-0.5,0.6,0.2,1.5-0.6,2.1
		c-0.6-0.6-0.3-1.4-0.4-2.4c0.1,1.5,0,2.5,0.2,3.6c-0.4,2-0.2,3.8,1.9,4.9c0.1,0.1,0.2,0.3,0,0.4c-0.2,0.2-0.5,0.1-0.7,0
		c-2.4-1.1-4-5-3.5-8.6c1.2-7.6,5.9-12.5,13.6-14.2c7.5-1.6,14.2,0,19.8,5.4c3.7,3.7,5.4,8.4,5.8,13.5c0.7,7.8-0.9,15-6.3,21
		c-0.5,0.2-1,0.3-1.4,0.7c-0.7,0.5-1.2,1.3-1.7,1.9c-0.4,0.3-0.9,0.6-1.3,0.9C52,68,50.4,69,48.7,69.8c-1.3,0.7-2.6,1.1-3.9,1.7
		c-5,1.6-10.1,1.9-15.2,0.9c-0.5-0.1-1-0.2-1.5-0.5c-0.2-0.1-0.3-0.3-0.4-0.5c0-0.1,0-0.3,0.1-0.3c1.3-0.2-0.3-0.4,0-0.6
		C27.7,70.5,27.8,70.4,27.8,70.3z"/>
	<path class="st8" d="M29.8,73.9C25.2,74,21.2,72,17.3,70c-5.5-2.8-9.9-7-12.8-12.3c-2.1-3.8-3.4-8.3-4-12.7
		c-0.6-4.2-0.5-8.4-0.3-12.6c0.1-2.7,0-5.5,1.1-8.2c-1,4.3,0.5,8.5,0.4,12.8c-1.4-0.7-0.1-2.1-0.8-3.2c0-0.1-0.2,0.3,0,0.2
		c0.4,1.9,0.2,3.9,0.6,5.8c0.2,1.3-0.2,2.7,0.3,4c0.3,0.5,0.5,1,0.4,1.6C2.5,46.1,2,47,2.5,47.8C3,48.1,2.9,48.5,2.9,49
		C3.1,49.6,3,50.3,3.3,51c0.1,0.1,0.3,0.3,0.4,0.4c0.5,0.3,0.7,0.8,0.8,1.4c0.1,0.7,0.2,1.3,0.6,1.9c0.1,0.1,0.2,0.3,0.2,0.5
		c0.2,0.5,0.4,0.9,0.8,1.3C7.3,57.4,7.3,59,8.2,60c0.4,0.5,0.8,1.1,1.3,1.5c0.5,0.4,0.9,0.8,1.2,1.4c0.4,0.7,0.8,1.3,1.6,1.6
		c0.3,0.2,0.6,0.3,0.8,0.6c0.3,0.4,0.6,0.8,1,1.1c0.1,0.1,0.3,0.2,0.4,0.3c0.8,0.6,1.7,1.2,2.6,1.7c0.5,0.3,1.1,0.6,1.6,0.9
		c0.5,0.4,1.1,0.6,1.6,0.9c1.2,0.6,2.4,1,3.5,1.4c0.8,0.3,1.6,0.6,2.4,0.8c0.8,0.3,1.7,0.4,2.5,0.7C29.3,73.1,29.9,73.2,29.8,73.9z"
		/>
	<path class="st9" d="M12.9,65.4c-0.3-0.1-0.5-0.2-0.8-0.4c-0.4-0.8-1.1-1.3-1.6-2c-0.4-0.4-0.8-0.7-1.1-1.1C9,61.3,8.5,60.8,8,60.2
		c-1.4-0.8-1-2.8-2.3-3.6C5.6,56,5.3,55.5,4.9,55l0,0c-0.3-0.6-0.4-1.4-0.8-2c-0.1-0.5-0.3-1.1-0.4-1.6C5.6,50.6,5.2,52,5.3,53
		c0.6,1.4,1.2,2.8,2,4c0.5,0.8,1.1,1.6,1.6,2.4c0.5,0.9,1.5,1.5,2,2.4c0.5,0.5,1.1,1,1.6,1.6c0.6,0.4,1,0.9,1.6,1.2
		c1,1.1,2.3,1.7,3.6,2.4c1,0.5,2.2,0.6,3.2,1.3c1,1,2.6,1,3.5,2.2c0.1,0.3,0.1,0.6-0.1,0.8c-0.1,0.2-0.3,0.2-0.5,0.2
		c-1.2-0.4-2.4-0.9-3.6-1.5c-0.5-0.2-1-0.5-1.5-0.7c-0.6-0.4-1.3-0.7-1.9-1c-0.8-0.7-1.7-1.3-2.7-1.7l0,0
		C13.8,66.1,13.4,65.7,12.9,65.4z"/>
	<path class="st10" d="M20.6,39.8c1.3,0.6,0.4,1.9,1,2.8c0.9,1.5,1.5,3.2,2.3,4.8c0.7,0.4,1.2,1,1.7,1.6c1.4,0,1.9,2,3.5,1.6
		c0.3,0,0.5,0.1,0.7,0.3c0.5,0.6,1.6,0.4,1.9,1.2c0,0.2,0,0.3-0.2,0.5c-5.2-0.3-9.9-4.5-11.2-10.1c-0.4-1.7-1-3.3-0.8-5.1
		c0.1,0,0.2,0,0.4,0c0.4-0.1,0.5,0.1,0.6,0.4C20.4,38.5,20.3,39.2,20.6,39.8z"/>
	<path class="st11" d="M7.3,26.1c0,0.1,0,0.3,0,0.4c-0.7,1.5-0.9,3.1-1.1,4.7c-0.1,0.5-0.2,1-0.7,1.3c-0.2,0.1-0.4,0.1-0.6,0
		c0-5.1,1.4-9.6,4.5-13.7c0.7-0.9,1.2-1.9,1.8-2.8c0.1-0.5,0.5-0.9,0.9-1.2c0.1-0.1,0.2-0.3,0.4-0.4c0.3,0.2,0.5,0.5,0.6,0.9
		c-0.7,1.3-1.5,2.4-2.2,3.6c-0.4,0.6-1,1-1.3,1.7c-0.3,0.5-0.7,1-0.7,1.7c0,0.8-0.2,1.5-0.7,2.1C7.4,24.8,7.3,25.4,7.3,26.1z"/>
	<path class="st12" d="M23.8,21.5c-0.1,0.2-0.3,0.4-0.4,0.6c-0.1,0.2-0.2,0.3-0.3,0.4l0,0c-0.1,0.1-0.2,0.2-0.3,0.3
		c-0.1,0.2-0.2,0.4-0.3,0.6c-0.1,0.4-0.2,0.8-0.4,1.1c-0.1,0.2-0.3,0.4-0.4,0.7c-0.4,0.5-0.5,1.3-1.1,1.7c-0.1,0.1-0.3,0.3-0.4,0.4
		c-1.4,1.3-1,3.3-2,4.8c-1-2.9,2-9.5,5.7-12.9c0.4-0.1,0.5,0.2,0.6,0.5C24.5,20.5,24,21,23.8,21.5z"/>
	<path class="st13" d="M57.5,15.7c-0.2-0.1-0.4-0.3-0.7-0.4c-0.8,0.1-1.5-0.3-2.3-0.4c-0.9-0.3-1.8-0.4-2.4-1.2c0-0.2,0-0.4,0.2-0.5
		c0.5,0,1-0.2,1.5,0.2c4.4,1.1,8.4,2.8,11.3,6.4c0.1,0.1,0.1,0.3,0.1,0.5c-0.1,0.2-0.3,0.4-0.5,0.5c-0.2,0-0.3-0.1-0.4-0.2
		c-0.5-0.5-0.9-1-1.4-1.5c-0.8,0-1-0.7-1.4-1.2l-0.1,0l-0.1,0c-0.7-0.1-1.2-0.7-1.9-1C58.7,16.4,58.1,16.1,57.5,15.7z"/>
	<path class="st14" d="M27.7,65.5c-4.8-0.4-8.9-2.4-12.4-5.6c-0.2-0.3,0-0.5,0.3-0.6c0.7-0.1,1.1,0.4,1.7,0.7
		c0.5,0.3,1.1,0.4,1.6,0.7c0.2,0,0.3,0.1,0.4,0.2c0.1,0.1,0.2,0.3,0.3,0.4c0.1,0.2,0.3,0.4,0.5,0.5c0.4,0.2,0.8,0.4,1.2,0.5
		c0.2,0.1,0.3,0.1,0.5,0.2c1.1,0.5,2.4,0.7,3.3,1.7c1.3,0.3,2.6,0.6,3.9,1C28.8,66.1,28.2,65.5,27.7,65.5z"/>
	<path class="st15" d="M56.3,63.8c0.4-0.9,0.9-0.8,1.6-0.4C54,68.3,49,71.4,43,73c-0.3-0.1-0.5-0.2-0.5-0.6c0.7-0.9,1.9-0.7,2.8-1.2
		c1.2-0.5,2.4-1,3.5-1.6c1.6-0.9,3.2-1.8,4.6-3c0-0.8,0.6-0.8,1.2-0.7C55.1,65.1,55.9,64.6,56.3,63.8z"/>
	<path class="st16" d="M19.8,7.6c1.2-0.7,2.4-1.4,3.6-2c1.1-0.6,2.2-1.3,3.3-1.8c0.2-0.1,0.3-0.1,0.5-0.2C27.8,3.3,28.4,3.1,29,3
		c0.2,0,0.4,0,0.5,0.1c0.2,0.2,0.4,0.4,0.4,0.7c-0.5,0.9-1.3,1.3-2.3,1.4c-1.2,0.4-2.2,1.1-3.4,1.5c-0.5,0.2-0.9,0.5-1.3,0.8
		c-1.3,0.5-2.1,1.7-3.6,1.8c-0.3-0.1-0.5-0.3-0.6-0.6C18.6,7.9,19.1,7.7,19.8,7.6z"/>
	<path class="st17" d="M19,8.8c0.1,0.1,0.3,0.2,0.4,0.4c0,1.2-1.2,1.4-1.9,2.1c-0.6,0.6-1.3,1.1-1.9,1.7c-0.9,0.7-1.4,2-2.6,2.2
		c-0.3-0.2-0.4-0.5-0.4-0.8c0.1-0.3,0.3-0.5,0.4-0.8c0.9-1,2.2-1.8,3-3c0.7-0.6,1.1-1.3,1.8-1.8c0.1-0.1,0.2-0.1,0.3-0.1
		C18.3,8.6,18.7,8.6,19,8.8z"/>
	<path class="st18" d="M71.9,29.7c0,0.1,0.1,0.2,0.1,0.3c0.5,0.5,0.7,1.3,1,1.9c0.3,0.6,0.5,1.2,0.6,1.8c0,0.1,0.1,0.3,0.1,0.4
		c-0.2,1.1,0.2,2.1,0.4,3.2c0,0.2,0,0.4,0,0.6c-0.3,0.4-0.1,1.3-1.1,0.9c-0.3-0.3-0.3-0.7-0.4-1.1c-0.3-1-0.2-2.1-0.6-3.2
		c-0.3-1.4-1-2.8-1-4.3C71.2,29.8,71.4,29.6,71.9,29.7z"/>
	<path class="st19" d="M40.7,73.5c-3.2,1-6.4,0.8-9.7,0.3c-0.1-0.5,0.3-0.6,0.6-0.8c2.6-0.3,5.3,0.1,8-0.4
		C40.1,72.8,40.5,73.1,40.7,73.5z"/>
	<path class="st20" d="M75.2,41.3c0.5,2.7,0.5,5.5,0,8.2c-0.4-0.2-0.7-0.6-0.8-1c0-0.2-0.1-0.4-0.1-0.7c-0.2-1.8-0.3-3.6,0-5.4
		C74.5,41.9,74.8,41.5,75.2,41.3z"/>
	<path class="st21" d="M7.7,49c-1.6,0-1.3-1.4-1.7-2.3c0.1-0.3,0.2-0.5,0.5-0.7c0.3-0.1,0.5-0.1,0.8,0c0.3,0.2,0.6,0.5,0.7,0.8
		c0.1,0.2,0.1,0.5,0.1,0.8c0,0.3,0,0.6,0.2,0.9c0,0.1,0,0.2,0,0.2c0,0.2-0.1,0.3-0.2,0.4C7.9,49.2,7.8,49.1,7.7,49z"/>
	<path class="st22" d="M69.1,24.1c0.5,0.8,1.1,1.6,1.6,2.4c0.2,0.2,0.2,0.5,0.2,0.8c-0.1,0.3-0.3,0.5-0.6,0.5
		c-1.1-0.3-1.2-1.5-1.8-2.3c-0.2-0.3-0.4-0.6-0.3-1C68.4,24.2,68.7,23.9,69.1,24.1z"/>
	<path class="st23" d="M7.3,46.2c-0.3,0-0.5,0-0.8,0c-0.6-0.4-1-0.9-0.8-1.7c-0.2-0.5-0.9-0.9-0.4-1.6c0.9,0.1,0.8,1.6,2,1.3
		c0.1,0.1,0.1,0.3,0.2,0.4C7.4,45.1,7.7,45.6,7.3,46.2z"/>
	<path class="st24" d="M64.7,20.4c0.2-0.1,0.3-0.2,0.5-0.4c1.1,0.1,1.6,1,2.3,1.6c0.1,0.3,0.3,0.5,0.4,0.8c0.2,0.2,0.3,0.5,0.1,0.8
		c-0.1,0.1-0.3,0.2-0.5,0.3c-0.7,0-0.9-0.6-1.2-1l-0.1-0.1C65.8,21.7,65.1,21.2,64.7,20.4z"/>
	<path class="st25" d="M47.1,11.6c1.4,0.1,2.8,0.2,4,1.2c-0.3,0.5-0.8,0.5-1.3,0.6c-0.9,0.3-1.7,0-2.4-0.7
		C47.1,12.4,46.9,12.1,47.1,11.6z"/>
	<path class="st26" d="M27.4,41c-0.8-1.2-0.1-2.4-0.5-4c0.8,0.9,0.3,1.7,0.8,2.5c0.3-0.6,0-1.4,0.6-1.7C28.1,38.9,28.6,40.1,27.4,41
		z"/>
	<path class="st27" d="M5.2,38.6c-0.1,0.3-0.2,0.5-0.3,0.8c-0.1,0.2-0.3,0.2-0.4,0c-0.7-1.4-0.2-2.9-0.3-4.6
		c0.8,0.8,0.1,1.8,0.7,2.5c0.3,0.1,0.5,0.3,0.7,0.6C5.5,38.2,5.5,38.4,5.2,38.6z"/>
	<path class="st28" d="M48.7,46.6c0.1,0,0.3,0,0.4,0c0.1,1.8,0.9,3.5,0.1,5.3c-0.7-0.5-0.6-1.2-0.8-1.9
		C48.1,48.8,47.9,47.7,48.7,46.6z"/>
	<path class="st29" d="M35.4,12.8c0.4-0.9,1.2-0.8,2-0.8c0.3,0.2,0.4,0.5,0.4,0.8c0,0.2,0,0.4-0.1,0.6c-0.1,0.3-0.4,0.5-0.7,0.6
		c-0.4,0.1-0.8,0.1-1.2-0.1C35.4,13.6,35.1,13.3,35.4,12.8z"/>
	<path class="st30" d="M74,54.7c0-0.4,0-0.8,0-1.2c0.1-0.6-0.1-1.3,0.2-1.9c0.1-0.2,0.2-0.3,0.4-0.3c0.2,0,0.4,0.1,0.5,0.2
		c-0.1,1.1-0.1,2.2-0.7,3.2C74.3,54.8,74.1,54.8,74,54.7z"/>
	<path class="st31" d="M13.7,55.8c0.2,0.4,0.3,0.8,0.5,1.2c0.4,0.5,1.3,0.7,0.9,1.6c-1.2,0.2-1.5-0.9-2.1-1.5c0-0.2-0.1-0.4-0.1-0.6
		c-0.1-0.2,0-0.3,0.1-0.5C13.2,55.8,13.4,55.7,13.7,55.8z"/>
	<path class="st32" d="M12.9,57c0.7,0.5,1.4,1,2,1.6c0.1-0.1,0.3-0.1,0.5-0.1c0.3,0.2,0.5,0.5,0.3,0.9c-0.2,0.2-0.3,0.3-0.5,0.5
		C14.3,59.1,13.2,58.5,12.9,57z"/>
	<path class="st33" d="M37.4,12.9c0-0.3,0-0.6,0-0.9c0.5-0.4,1.1-0.4,1.7-0.3c0.2,0.3,0.8,0,0.9,0.6c-0.2,0.5-0.6,0.8-1.1,0.9
		C38.3,13.3,37.9,13.2,37.4,12.9z"/>
	<path class="st34" d="M16.2,10.8c-0.3,0-0.6,0-0.9,0c0.6-0.9,1.2-1.8,2.4-2C17.5,9.7,17,10.4,16.2,10.8z"/>
	<path class="st35" d="M57.4,73.5c0.7,0.4,1.1-0.2,1.7-0.4c0.2,0.3,0.2,0.6,0,0.8c-0.6,0.8-1.7,0.6-2.4,1.1
		C56,74.1,57.4,74.1,57.4,73.5z"/>
	<path class="st36" d="M29.8,65.1c0.6,0.7,1.8-0.1,2.4,0.7c-1.5,0-3,0.3-4.4-0.3c0.4-0.1,0.9,0,1.2-0.4
		C29.2,65.1,29.5,65.1,29.8,65.1z"/>
	<path class="st30" d="M24.2,19.8c-0.1-0.2-0.3-0.3-0.4-0.5c0.7-0.8,1.4-1.6,2.4-2c0.4-0.1,0.4,0.1,0.5,0.4
		c-0.2,0.6-0.8,0.9-1.1,1.4C25.2,19.4,24.8,19.9,24.2,19.8z"/>
	<path class="st37" d="M11.3,54.6c0.3,0,0.6,0,0.9,0c0.4,0.5,1.1,0.8,0.8,1.6c0,0-0.1,0.2-0.1,0.2C11.8,56.3,10.9,55.9,11.3,54.6z"
		/>
	<path class="st38" d="M48.7,50.2c0.5,0.5,0.2,1.1,0.4,1.7c-0.1,0.7,0.1,1.4-0.4,2c-0.1-0.6,0-1.2-0.9-1.3c-0.2-0.4,0-0.7,0.1-1
		C48.3,51.2,48.2,50.5,48.7,50.2z"/>
	<path class="st39" d="M35.4,12.8c0.2,0.3,0.3,0.7,0.5,1c0,0.2,0,0.3-0.2,0.4c-0.2,0-0.3,0-0.5-0.1c-0.3-0.1-0.7-0.2-0.9-0.4
		c-0.4-0.2-0.4-0.5-0.5-0.9C34.3,12,34.9,13,35.4,12.8z"/>
	<path class="st35" d="M70.6,27.3c0.5,0.7,0.4,1.7,1.4,2c-0.1,0.1-0.1,0.3-0.2,0.4c-0.2,0.1-0.5,0.3-0.7,0.4c-1-0.5-1.2-1.3-0.9-2.3
		C70.4,27.7,70.5,27.5,70.6,27.3z"/>
	<path class="st40" d="M72.8,32.1c0.5-0.1-0.1-0.7,0.4-0.8c0.5,0.7,0.9,1.5,0.5,2.4C73,33.4,73.3,32.6,72.8,32.1z"/>
	<path class="st41" d="M59.5,4.8c-0.6-0.2-0.8-0.6-0.8-1.2c0.8-0.1,1.4,0.3,2.1,0.7C60.6,5.3,60,5,59.5,4.8z"/>
	<path class="st42" d="M63.9,6.4c0.3,0.1,0.5,0.3,0.8,0.4c0.1,0.4,0.4,0.4,0.7,0.4c0.4,0.1,0.7,0.2,0.8,0.6c0,0.2,0,0.3-0.1,0.5
		c-0.3,0.3-0.6,0-1,0c-0.3-0.3-0.5-0.5-0.8-0.8c-0.3-0.3-0.7-0.4-0.6-1C63.8,6.6,63.9,6.5,63.9,6.4z"/>
	<path class="st43" d="M40.7,73.5c-0.3-0.1-0.6-0.3-0.9-0.4c0.8-0.8,1.7-1.1,2.8-0.5c0.1,0.1,0.3,0.2,0.4,0.3
		C42.3,73.2,41.5,73.6,40.7,73.5z"/>
	<path class="st44" d="M59.1,73.9c0-0.3,0-0.6,0-0.8c0.7-0.3,1.3-0.5,2-0.8C61.1,73.6,59.8,73.3,59.1,73.9z"/>
	<path class="st45" d="M26.6,17.5c-0.1-0.1-0.2-0.2-0.3-0.2c0.5-0.7,1.1-1,2-0.8c0.1,0.1,0.2,0.2,0.2,0.4c0,0.1,0,0.2,0,0.2
		c0,0.1-0.1,0.1-0.1,0.2c-0.3,0.1-0.6,0.2-0.9,0.4C27,17.9,26.8,18,26.6,17.5z"/>
	<path class="st46" d="M52.3,13.3c0,0.1,0,0.2,0,0.4c0,0.7-0.4,0.7-0.8,0.4l-0.2,0l-0.2,0c-0.4,0.2-0.7,0-1-0.1
		c-0.2-0.1-0.3-0.2-0.3-0.4c0-0.2,0.1-0.3,0.2-0.5c0.5-0.2,1,0.1,1.5-0.2c0.1,0,0.3,0,0.4,0C52,13,52.3,13,52.3,13.3z"/>
	<path class="st47" d="M37.8,49.8c-1.5,0.6-2.9,0.6-4.4,0C34.9,49.8,36.4,49.8,37.8,49.8z"/>
	<path class="st48" d="M36.2,0.9c-0.6-0.3-1.3,0.7-2,0c0.7-0.6,1.5-0.4,2.3-0.5c0.3,0.1,0.6,0.2,0.8,0.4C37.1,1.1,36.7,1.1,36.2,0.9
		z"/>
	<path class="st49" d="M27,4c-0.3-0.6-0.9,0-1.2-0.4c0.8-0.4,1.5-1.2,2.6-0.8c0.1,0.7-0.8,0.7-0.9,1.2C27.3,4,27.1,4,27,4z"/>
	<path class="st50" d="M31.5,73.4c-0.2,0.1-0.3,0.3-0.5,0.4c-0.4,0-0.8,0-1.2,0c-0.3-0.4-0.8-0.3-1.2-0.4c0-0.6,0.5-0.7,0.9-0.8
		C30.2,72.6,31.1,72.4,31.5,73.4z"/>
	<path class="st51" d="M74,37.7c0.7-0.4,0.2-1.1,0.3-1.6c0.6,1,0.6,2.2,0.8,3.3c-0.1,0.1-0.3,0.1-0.4,0.1c-0.2-0.2-0.4-0.5-0.6-0.7
		c-0.2-0.3-0.3-0.5-0.2-0.9L74,37.7z"/>
	<path class="st52" d="M70.8,62.8c0.1-0.4,0.2-0.8,0.3-1.3c0.4-0.4,0.5-1,0.9-1.4c0.3,0.1,0.5,0.2,0.3,0.6c-0.2,0.5-0.3,0.9-0.5,1.4
		C71.8,62.7,71.4,63,70.8,62.8z"/>
	<path class="st53" d="M57.4,73.5c0.2,0.7-0.9,0.8-0.7,1.5c-0.3,0-0.5,0-0.8,0.1C55.5,73.7,56.9,74.1,57.4,73.5z"/>
	<path class="st54" d="M19,8.8c-0.3,0-0.6-0.1-0.9-0.1c0.3-0.8,0.6-1.6,1.7-1.2C19.5,8,18.9,8.2,19,8.8z"/>
	<path class="st55" d="M45.4,12c-0.8,0-1.6,0-2.3,0.1c-0.4,0.3-0.7,0.3-1.2,0.1c-0.2-0.2-0.2-0.3-0.1-0.5C43,11.7,44.3,11.2,45.4,12
		z"/>
	<path class="st56" d="M5.3,37.7c-0.1-0.2-0.3-0.3-0.4-0.5c0-0.8,0-1.6,0.1-2.4c0.2-0.1,0.3-0.1,0.5,0c0.2,0.2,0.3,0.5,0.3,0.8
		c0.1,0.5,0.2,1.1,0.2,1.6c0,0.2-0.1,0.4-0.2,0.5C5.6,37.9,5.4,37.9,5.3,37.7z"/>
	<path class="st57" d="M74.1,56.2c-0.1,0.9-0.4,1.7-0.8,2.4c-0.2,0.1-0.3,0.1-0.5,0c-0.2-0.5,0.1-0.9,0.2-1.3
		c0.1-0.5,0.2-0.9,0.6-1.3C73.8,56.1,73.9,56.1,74.1,56.2z"/>
	<path class="st58" d="M5.7,44.5c0.3,0.6,0.6,1.1,0.8,1.7c-0.2,0.2-0.3,0.3-0.5,0.5C5.7,45.9,5,45.3,5.7,44.5z"/>
	<path class="st59" d="M23,68.6c0.9,0,1.7,0.3,2.4,0.8c0.1,0.1,0.1,0.2,0.1,0.3c0,0.1,0,0.2-0.1,0.2c-0.5,0.3-1,0-1.5-0.1
		c-0.2-0.1-0.3-0.1-0.5-0.2C23.3,69.3,22.7,69.2,23,68.6L23,68.6z"/>
	<path class="st60" d="M4.4,39.4c0.1,0,0.3,0,0.4,0c0,0.9,0,1.9,0,2.8C4.3,41.3,4.5,40.3,4.4,39.4z"/>
	<path class="st61" d="M72.9,58.6c0.1,0,0.3,0,0.4,0.1c-0.1,0.8-0.3,1.4-0.8,2c-0.1-0.2-0.2-0.3-0.3-0.5c-0.3-0.2-0.3-0.4-0.1-0.7
		l0,0C72.2,59.2,72.4,58.8,72.9,58.6z"/>
	<path class="st62" d="M53.4,1.6c-0.3,0-0.5,0-0.8,0.1c-0.7,0.3-1.2,0.2-1.6-0.5c0-0.1,0-0.2,0-0.3C51.9,1,52.7,1,53.4,1.6z"/>
	<path class="st63" d="M67.9,23.3c0-0.3,0-0.5,0-0.8c0.7,0.1,1.1,0.5,1.2,1.2C68.5,24.1,68.2,23.8,67.9,23.3z"/>
	<path class="st64" d="M76,23.3c-0.9,0.4-1-0.3-1.2-0.8c0.4,0,0.6-0.1,0.8-0.5C76.1,22.3,76.1,22.8,76,23.3z"/>
	<path class="st65" d="M61.8,5.9c0-0.1,0.1-0.2,0.1-0.3c0.3,0,0.5,0,0.8,0c0.4,0.3,0.8,0.6,1.2,0.9c0,0,0,0,0,0
		c-0.2,0.2-0.4,0.2-0.7,0C62.8,6.3,62.3,6.1,61.8,5.9z"/>
	<path class="st66" d="M74.8,39.4c0.1,0,0.2,0,0.3,0c0,0.6,0.1,1.3,0.1,1.9c-0.1,0.3-0.2,0.6-0.4,0.8c-0.8-0.6-0.6-1.4-0.5-2.2
		C74.5,39.7,74.6,39.5,74.8,39.4z"/>
	<path class="st67" d="M25.4,69.8c0-0.1,0-0.3,0-0.4c0.9,0.1,1.7,0.2,2.4,0.8c0,0,0,0,0,0c-0.7,0.6-1.3,0.4-2,0
		C25.6,70.2,25.5,70,25.4,69.8z"/>
	<path class="st68" d="M12.2,14.9c0,0.6-0.4,1-0.9,1.2C10.7,15,11.5,15,12.2,14.9z"/>
	<path class="st69" d="M75.1,51.4l-0.2,0l-0.2,0c-0.4-0.6-0.3-1.2-0.3-1.8c0-0.3,0.1-0.6,0.4-0.8c0.2,0.2,0.3,0.5,0.5,0.7
		C75.2,50.1,75.1,50.7,75.1,51.4z"/>
	<path class="st70" d="M61.5,72.2c0.4-0.6,0.7-1.2,1.5-1.2C63,72.1,62.3,72.2,61.5,72.2z"/>
	<path class="st71" d="M41.8,11.7c0,0.1,0,0.2,0,0.3c-0.1,0.2-0.2,0.3-0.4,0.4c-0.2,0.1-0.4,0.1-0.5,0.1c-0.4,0-0.7-0.1-1-0.4
		c-0.3-0.1-0.5-0.3-0.8-0.4C40,11.7,40.9,11.7,41.8,11.7z"/>
	<path class="st30" d="M67.9,23.3c0.4,0.1,0.8,0.3,1.2,0.4c0,0.1,0,0.3,0,0.4c-0.3,0.1-0.5,0.3-0.8,0.4c-0.3,0.2-0.5,0-0.6-0.2
		c-0.1-0.3-0.4-0.6-0.1-1C67.7,23.3,67.8,23.3,67.9,23.3z"/>
	<path class="st47" d="M39,50.1c-0.2-0.1-0.4-0.3-0.5-0.4c0.5-0.3,1-1,1.4-0.2C40.2,49.9,39.4,50,39,50.1z"/>
	<path class="st72" d="M5.3,34.9c-0.1,0-0.2,0-0.4,0c0-0.8,0-1.6,0-2.4c0.1,0,0.2,0,0.4,0C6,33.3,6,34.1,5.3,34.9z"/>
	<path class="st73" d="M74.1,56.2c-0.1,0-0.3,0-0.4,0c-0.6-0.5-0.1-0.9,0.3-1.2c0-0.1,0-0.3,0-0.4c0.2,0,0.3,0,0.5,0
		C74.4,55.2,74.5,55.8,74.1,56.2z"/>
	<path class="st45" d="M33.4,52.3c0.7,0,1.3,0,2,0c-0.5,0.8-1.3,0.3-2,0.4c-0.1-0.1-0.2-0.1-0.1-0.2C33.3,52.3,33.4,52.3,33.4,52.3z
		"/>
	<path class="st74" d="M33.4,52.3c0,0.1,0,0.2,0,0.3c-0.7,0-1.3,0-2,0c0-0.1,0-0.2,0-0.3c0.1-0.2,0.3-0.2,0.5-0.1
		C32.4,52.2,32.9,52.2,33.4,52.3z"/>
	<path class="st75" d="M51.4,12.9c-0.4,0.5-1,0.3-1.6,0.4c-0.3,0.1-0.5,0-0.3-0.4c0.5,0,1-0.1,1.5-0.1
		C51.2,12.8,51.3,12.8,51.4,12.9z"/>
	<path class="st46" d="M29.3,16.1c-0.1,0-0.3,0-0.4-0.1c0-0.3,0-0.8,0.5-0.8c0.1,0.1,0.1,0.2,0.1,0.3c0,0.1-0.1,0.1-0.1,0.1
		C29.4,15.8,29.3,16,29.3,16.1z"/>
	<path class="st76" d="M8.1,49.4l-0.2,0c0,0-0.2,0-0.2,0c0-0.1,0-0.3,0-0.4c0.1,0,0.2,0,0.4,0C8.3,49.1,8.3,49.2,8.1,49.4z"/>
	<path class="st77" d="M29.4,15.7c0-0.1,0-0.3,0-0.4c0.3-0.1,0.4,0.2,0.4,0.4C29.7,15.6,29.5,15.6,29.4,15.7z"/>
	<path class="st78" d="M31.8,2.3c0.7,0.2,1.3-0.3,2-0.4c0.6-0.1,1.1-0.1,1.7-0.2c0.1,0.2,0.3,0.4,0.4,0.6c-0.7,0.6-1.7,0.3-2.4,0.8
		c-1.1,0.1-2.3,0.2-3.3,0.8c-0.2-0.1-0.3-0.2-0.4-0.4c-0.1-0.1-0.3-0.3-0.4-0.4C30.2,2.9,31,2.6,31.8,2.3z"/>
	<path class="st79" d="M25,63.4c-1.2-0.2-2.3-1-3.7-0.7c0,0,0,0,0,0c-0.3-0.4-0.4-0.7-0.1-1.2c1.5-0.1,2.7,0.8,4.1,0.8
		c0.2,0.3,0.2,0.5,0,0.8C25.3,63.1,25.1,63.2,25,63.4z"/>
	<path class="st80" d="M7.3,36.9c-1.1-1.9,0.5-3.7,0.4-5.6c0,1.9,0,3.7,0,5.6C7.5,37.1,7.4,37.1,7.3,36.9z"/>
	<path class="st81" d="M10.8,19.2c0.4-0.5,0.9-1,1.3-1.6c0.7,1.1-0.1,1.9-0.6,2.7c-0.4,0.8-0.7-0.2-1-0.3
		C10.3,19.7,10.6,19.5,10.8,19.2z"/>
	<path class="st82" d="M27.5,5.7c0-0.3-0.1-0.6-0.1-0.9c1,0.1,1.6-0.9,2.5-1.2C30,3.8,30.1,3.9,30.2,4C29.9,5.6,28.5,5.3,27.5,5.7z"
		/>
	<path class="st78" d="M45.4,1.9c-2,0-4,0-6,0C41.4,1.4,43.4,1.4,45.4,1.9z"/>
	<path class="st83" d="M7.3,36.9c0.1,0,0.3,0,0.4,0c0,1.1-0.1,2.2,0.1,3.3C7.1,39.3,7.4,38.1,7.3,36.9z"/>
	<path class="st84" d="M8.1,45.5c-0.6,0.4,0.3,1.2-0.4,1.5c-0.1-0.3-0.3-0.6-0.4-0.8c0-0.6-0.4-1.1,0.1-1.6
		C7.8,44.7,8.1,45,8.1,45.5z"/>
	<path class="st85" d="M67.8,10c0.2,0.2,0.4,0.5,0.5,0.7c-1.3,0.9-1.4-0.6-2-1.1c0.1-0.1,0.3-0.2,0.4-0.2C67.2,9.5,67.5,9.8,67.8,10
		z"/>
	<path class="st78" d="M41.4,1.2c0.1-0.1,0.1-0.2,0.2-0.3c0.9,0,1.8,0,2.7,0c0,0.1,0.1,0.2,0.2,0.3C43.3,1.1,42.4,1.2,41.4,1.2z"/>
	<path class="st86" d="M47.9,46.6c0.1,0,0.2,0,0.3,0c0.4,0.9,0.2,1.8,0.2,2.7c-0.2,0.2-0.4,0.2-0.6,0.1c-0.2-0.7-0.3-1.4,0.1-2
		C47.9,47.1,47.9,46.8,47.9,46.6z"/>
	<path class="st87" d="M69.7,15.1c-0.9-0.2-1.1-0.6-1.4-1c0-0.1,0-0.2,0-0.2C69,13.7,69.2,14.4,69.7,15.1z"/>
	<path class="st88" d="M66.7,9.6c-0.1,0-0.3,0-0.4,0c-0.5-0.3-0.9-0.7-1.2-1.2c0.3-0.4,0.6-0.1,0.8,0C66.3,8.7,67,8.9,66.7,9.6z"/>
	<path class="st89" d="M25.4,63c0-0.3,0-0.5,0-0.8c0.5,0.2,1.1,0.4,1.7,0.6C26.5,63.2,25.9,63,25.4,63z"/>
	<path class="st11" d="M6.6,32.5c0-0.5,0-1.1-0.1-1.6c0.1-0.1,0.3-0.3,0.4-0.4C6.8,31.2,7.1,31.9,6.6,32.5z"/>
	<path class="st90" d="M9,44.5c0.4,0.3,0.5,0.9,0.3,1.1C8.8,45.9,9,45.3,8.9,45C8.9,44.9,9,44.7,9,44.5z"/>
	<path class="st91" d="M6.5,39.3c0-0.7,0-1.3,0-2c0.6,0.6,0.3,1.4,0.3,2.1C6.8,39.4,6.7,39.3,6.5,39.3z"/>
	<path class="st92" d="M65.1,9.2c-0.3,0.2-0.4,0.3-0.4,0.3c-0.2-0.1-0.4-0.3-0.6-0.5c-0.1-0.2,0-0.4,0.3-0.3
		C64.6,8.8,64.8,9,65.1,9.2z"/>
	<path class="st93" d="M47.9,49.8c0-0.1,0-0.2,0-0.4c0.1,0,0.2,0,0.3,0c0.3,0.7,0.7,1.5-0.3,2c0-0.2,0-0.3,0-0.5
		C47.9,50.6,47.9,50.2,47.9,49.8z"/>
	<path class="st94" d="M8.1,48.2c0.1,0,0.3,0,0.4,0c0.1,0.2,0.2,0.3,0.4,0.5c-0.1,0.1-0.3,0.1-0.4,0.1c-0.2,0-0.3-0.1-0.4-0.2l0,0
		C8,48.5,8,48.4,8,48.3C8.1,48.2,8.1,48.2,8.1,48.2z"/>
	<path class="st95" d="M8.6,49c-0.1-0.1-0.1-0.2-0.1-0.4c0.1,0,0.3,0.1,0.4,0.1C8.8,48.8,8.7,48.9,8.6,49z"/>
	<path class="st96" d="M19.8,61.4c0-0.1,0-0.2,0-0.4c0.1,0.1,0.2,0.2,0.3,0.3c0,0,0,0.2,0,0.2C20,61.6,19.9,61.6,19.8,61.4z"/>
	<path class="st97" d="M74,47.4c-0.1,0-0.2,0-0.3,0c-0.4-0.4-0.3-1-0.5-1.6c0.1-1-0.3-2,0-3c0-0.2,0-0.4,0.1-0.7
		c0.2-0.6,0.2-1.4,0.9-1.7c0.3,0,0.4,0.1,0.5,0.4c0,2.1,0,4.2,0,6.4C74.4,47.5,74.2,47.5,74,47.4z"/>
	<path class="st98" d="M42.2,14.8c0-0.1,0-0.2,0-0.3c1.4-0.8,2.9-0.9,4.3,0c0.6,0.5,1.4,0.2,2,0.7c-2,0-4,0-6,0
		C42.4,15.1,42.3,15,42.2,14.8z"/>
	<path class="st99" d="M22.5,22.5c0.2,0,0.3,0,0.5,0c0.4,0.8,0.2,1.4-0.4,2c-0.3,0.2-0.6,0.2-0.8,0c-0.1-0.6,0.1-1.1,0.4-1.6
		C22.3,22.8,22.4,22.6,22.5,22.5z"/>
	<path class="st100" d="M20.5,26.9c0-0.8,0.2-1.5,0.7-2.1c1.4,0.6,0.4,1.4,0.1,2.1C21.2,27.5,21.2,27.5,20.5,26.9z"/>
	<path class="st101" d="M46.6,14.5c-1.4,0-2.9,0-4.3,0c0-0.1,0-0.2,0-0.4c0.1-0.2,0.3-0.3,0.5-0.4c1.4-0.2,2.7-0.4,4,0.2
		c0.1,0.1,0.1,0.2,0.2,0.3C46.9,14.2,46.7,14.4,46.6,14.5z"/>
	<path class="st102" d="M72.7,42.5c-1.4-0.9-0.8-2.1-0.4-3.2c0.1,0.1,0.1,0.1,0.2,0.2c0.1,0.2,0.2,0.3,0.2,0.5
		c0.2,0.6,0.4,1.2,0.3,1.9c0,0.2-0.1,0.4-0.2,0.5C72.8,42.4,72.8,42.5,72.7,42.5z"/>
	<path class="st103" d="M21.4,27c0.1-0.7,0.6-1.5-0.1-2.1c0.2-0.1,0.3-0.3,0.5-0.4c0.3,0,0.6,0,0.8,0C22.3,25.4,22.3,26.4,21.4,27z"
		/>
	<path class="st104" d="M20.2,37.8c-0.1-0.1-0.3-0.3-0.4-0.4c0-0.9,0-1.8,0-2.7c0.1,0,0.2,0,0.3,0c0.2,1.1,0.3,2.1,0.5,3.2
		C20.4,37.9,20.3,37.9,20.2,37.8z"/>
	<path class="st105" d="M26.1,18.9c-0.3,0.1-0.5,0.4-0.8,0c0.4-0.4,0.8-0.9,1.2-1.3c0.3,0.1,0.5,0.1,0.8,0.2
		C27.2,18.3,27,18.9,26.1,18.9z"/>
	<path class="st106" d="M40.7,78.8c-0.3-0.1-0.7-0.1-0.8-0.5c0.5-0.1,0.5-1,1.2-0.7c0.1,0.9,0.8,0.6,1.3,0.8
		C41.9,78.8,41.2,78.7,40.7,78.8z"/>
	<path class="st107" d="M74,47.4c0.1,0,0.2,0,0.3,0c0.4,0.2,0.2,0.7,0.5,0.9c0,0.1,0,0.3,0,0.4c0,0.2,0,0.5,0,0.7
		c-0.3,0.2-0.1,0.9-0.7,0.9C74,49.3,74,48.3,74,47.4z"/>
	<path class="st102" d="M72.7,43c0,0.1,0.1,0.2,0.1,0.4c0.2,0.4,0.3,0.8,0,1.2c-0.3,0.1-0.8,0.4-0.8-0.3C72,43.7,71.9,43.1,72.7,43z
		"/>
	<path class="st22" d="M30.5,50.5c0.1,0.3,0.2,0.5,0.4,0.8c-0.6,0.7-0.9-0.2-1.4-0.3c-0.2-0.1-0.3-0.3-0.5-0.4
		C29.4,49.9,29.9,50.6,30.5,50.5z"/>
	<path class="st108" d="M72.8,44.6c0-0.4,0-0.8,0-1.2c0.7,0.7,0.2,1.7,0.5,2.5c0.1,0.3,0.2,0.6-0.1,0.8C72.5,46,72.9,45.2,72.8,44.6
		z"/>
	<path class="st109" d="M37.4,15.4c-0.5,1-1.1,0.5-2.1,0.8C36.2,15.5,36.7,15.4,37.4,15.4z"/>
	<path class="st110" d="M31.7,14.8c0.2-1.2,0.9-1,1.7-0.6C33.1,15.1,32.3,14.5,31.7,14.8z"/>
	<path class="st111" d="M21.4,28c-0.3,0.9-0.4,1.4-0.6,2C20.4,29.2,20.6,28.7,21.4,28z"/>
	<path class="st112" d="M51.7,15.5c0.6-0.2,1,0.2,1.5,0.4C52.6,16.1,52.1,16.2,51.7,15.5z"/>
	<path class="st39" d="M73.2,49.8c-0.1-0.1-0.2-0.2-0.3-0.3c-0.1-0.3,0-0.6,0.2-0.9c0.1,0,0.3,0,0.4,0C73.6,49,73.6,49.5,73.2,49.8z
		"/>
	<path class="st47" d="M37.5,50.6c-0.6,0.5-1.4,0.4-2.1,0.3C36,50.4,36.8,50.6,37.5,50.6z"/>
	<path class="st113" d="M49.8,75c-0.3,0.6-0.8,0.5-1.2,0.3C48.9,75,49.3,74.9,49.8,75z"/>
	<path class="st114" d="M35.8,14.1c0,0.2-0.1,0.4-0.3,0.4c-0.4,0-0.9,0.1-1.2-0.3c0-0.1,0-0.1-0.1-0.2c0.4-0.2,0.8-0.2,1.1,0
		C35.5,14,35.6,14,35.8,14.1z"/>
	<path class="st115" d="M28.6,16.8c0-0.1,0-0.2,0-0.3c0.1,0,0.3,0,0.4,0c0.1,0.1,0.1,0.2,0.1,0.3c0,0.1-0.1,0.1-0.1,0.1
		c0,0.3,0,0.7-0.4,0.8c-0.1-0.1-0.2-0.3-0.2-0.4C28.4,17.1,28.5,16.9,28.6,16.8z"/>
	<path class="st116" d="M65.1,69.5c0,0.3,0,0.6-0.4,0.7l-0.1-0.1l0.1-0.2c0-0.2,0.1-0.3,0.1-0.5C64.9,69.3,65,69.4,65.1,69.5z"/>
	<path class="st35" d="M23,22.5c0.1-0.1,0.2-0.3,0.3-0.4c0,0,0,0,0,0c0.1,0.1,0.1,0.2,0.1,0.2c0,0.1,0,0.1-0.1,0.1l-0.2,0L23,22.5z"
		/>
	<path class="st117" d="M29,16.8c0-0.1,0-0.3,0-0.4c0.1,0,0.2-0.1,0.4-0.1C29.3,16.5,29.1,16.7,29,16.8z"/>
	<path class="st77" d="M64.7,69.9c0,0.1,0,0.2,0,0.3c-0.1,0-0.3,0.1-0.4,0.1C64.4,70.2,64.6,70,64.7,69.9z"/>
	<path class="st118" d="M31.5,73.4c-0.6-0.5-1.3-0.3-2-0.4c-1.1-0.2-2.2-0.2-3.2-0.6c-0.7-0.4-1.6-0.2-2.1-1c0-0.3,0-0.5,0-0.8
		c0.6-0.5,1.1-0.3,1.7-0.1c0.7,0.1,1.4,0.3,1.9,0.9c5,1.4,10,1.4,15.1,0.1c0.7-0.2,1.4-0.3,2.1-0.5c0.4-0.2,0.5,0,0.5,0.4
		c-0.9,0.4-1.9,0.8-2.8,1.2c-0.9,0.2-1.8,0.3-2.8,0.5C37.1,73.6,34.3,73.5,31.5,73.4z"/>
	<path class="st119" d="M53.5,66.6c-1.1,1.6-2.8,2.3-4.5,3.2c-0.2-0.1-0.4-0.1-0.4-0.4C50.2,68.5,51.9,67.5,53.5,66.6z"/>
	<path class="st120" d="M48.6,69.4c0.1,0.1,0.3,0.3,0.4,0.4c-1.2,0.6-2.3,1.4-3.6,1.6c-0.2-0.1-0.3-0.3-0.5-0.4
		C46.1,70.2,47.4,69.9,48.6,69.4z"/>
	<path class="st121" d="M56.3,63.8c0,1.1-1,1.4-1.6,2C54.8,64.8,55.6,64.4,56.3,63.8z"/>
	<path class="st122" d="M25.8,70.7c0.7,0,1.4,0,2,0.4c0,0.1,0,0.2,0,0.3c-0.7-0.1-1.3-0.3-2-0.4c-0.1-0.1-0.2-0.1-0.1-0.2
		C25.7,70.7,25.7,70.7,25.8,70.7z"/>
	<path class="st123" d="M26.2,72.3c0,0.1,0,0.3,0,0.4c-0.8-0.2-1.7-0.4-2.4-0.9c0-0.1,0-0.2,0-0.3c0.1,0,0.3,0,0.4-0.1
		C24.8,71.7,25.5,72,26.2,72.3z"/>
	<path class="st123" d="M17,68.6c0-0.1,0-0.3,0-0.4c0.7,0.3,1.3,0.6,2,0.9c0.1,0.4,0,0.6-0.4,0.4C18,69.2,17.5,68.9,17,68.6z"/>
	<path class="st124" d="M12.9,65.4c0.7,0.1,1.2,0.4,1.2,1.2C13.6,66.3,13.1,66,12.9,65.4z"/>
	<path class="st125" d="M25.8,70.7c0,0.1,0,0.2,0,0.3c-0.5-0.1-1.1-0.3-1.6-0.4c-1.1-0.8-2.6-0.9-3.6-2c0.1,0,0.2,0,0.4,0
		c0.3,0,0.6,0,0.8,0c0.6,0.4,1.4,0.5,2,0.8l0,0c0.6,0.4,1.4,0.5,2,0.8C25.8,70.4,25.8,70.5,25.8,70.7z"/>
	<path class="st5" d="M18.9,60.6c0.1,0,0.3,0.1,0.4,0.1c0,0.1,0,0.2-0.1,0.3c-0.1,0-0.3,0-0.4,0C18.9,60.9,18.9,60.7,18.9,60.6z"/>
	<path class="st126" d="M74,40.4c-0.1,0.6,0.1,1.2-0.4,1.7c-0.8-1-0.6-2.1-0.6-3.2l0.1,0c0.2-0.4,0.5-0.8,0.7-1.2
		c0.2,0.3,0.3,0.6,0.5,0.9C74.3,39.3,74.5,39.9,74,40.4z"/>
	<path class="st91" d="M5.6,37.7c0.2,0.5,0.4,1.1,0.6,1.6c0.1,1.1,0.5,2.1,0.3,3.2c-0.7-1.2-1.1-2.5-1.3-3.9c0-0.3,0.1-0.6,0.1-0.9
		C5.4,37.7,5.5,37.7,5.6,37.7z"/>
	<path class="st127" d="M49.9,13.6c-0.8,0-1.6,0-2.4,0c-0.1-0.1-0.3-0.2-0.4-0.3c-0.4-0.2-0.9-0.2-0.8-0.8c0.4,0,0.8-0.1,1.2-0.1
		c0.7,0.1,1.3,1.1,2.2,0.5c0.1,0.1,0.2,0.2,0.3,0.4C49.9,13.4,49.9,13.5,49.9,13.6z"/>
	<path class="st128" d="M37.4,13.3c0.4,0,0.8,0,1.2,0c0.1,0.1,0.2,0.2,0.1,0.2c0,0.1-0.1,0.1-0.1,0.1c-0.5,0.5-1.1,0.7-1.6,0
		C37.1,13.5,37.3,13.4,37.4,13.3z"/>
	<path class="st129" d="M66.7,9.6c-0.3-0.4-0.5-0.8-0.8-1.2c0-0.1,0-0.2,0-0.4c0.3,0.1,0.5,0.3,0.8,0.4c0.4,0.5,0.7,1.1,1.1,1.6
		C67.5,9.9,67.1,9.8,66.7,9.6z"/>
	<path class="st130" d="M40.2,12.8c-0.4,0-0.8,0-1.2,0c0.3-0.2,0.6-0.5,0.8-0.7c0.4,0,0.8,0,1.2,0C41.2,12.8,40.5,12.6,40.2,12.8z"
		/>
	<path class="st131" d="M46.2,12.5c0.4,0.2,0.8,0.5,1.2,0.7c-1.3,0.7-2.8,0.3-4.2,0.3c-0.3-0.1-0.7-0.2-0.7-0.6
		c0.6-0.7,1.5,0,2.2-0.5C45.2,12.5,45.7,12.5,46.2,12.5z"/>
	<path class="st77" d="M28.6,17.2c-0.1,0-0.3,0-0.4,0.1c0-0.2,0-0.3,0-0.5c0.1,0.1,0.3,0.1,0.4,0C28.6,17,28.6,17.1,28.6,17.2z"/>
	<path class="st132" d="M74.7,39.8c-0.1,0.3-0.2,0.5-0.4,0.8c-0.1,0-0.2-0.1-0.3-0.2c0.1-0.6-0.3-1.3,0.4-1.8
		c0.4,0.1,0.3,0.4,0.4,0.7C74.8,39.5,74.7,39.7,74.7,39.8z"/>
	<path class="st133" d="M40.6,13.2c0.3,0,0.5,0.1,0.8,0.1c0.2,0.1,0.2,0.1,0.2,0.2c0,0.1-0.1,0.1-0.1,0.1c-0.7,0-1.3,0.1-2,0.1
		c-0.3,0-0.5,0-0.8-0.1c0-0.1,0-0.2,0-0.3C39.3,13.3,39.9,13.2,40.6,13.2z"/>
	<path class="st134" d="M72.4,39.7c1.2,0.7,0.9,1.6,0.4,2.5C72.9,41.3,72.2,40.6,72.4,39.7z"/>
	<path class="st135" d="M43,13.6c-0.1,0-0.3,0.1-0.4,0.1c-0.4,0-0.8-0.1-1.2-0.1c0-0.1,0-0.2,0-0.3c0.3-0.2,0.5-0.3,0.8-0.5
		c0.2,0,0.3,0.1,0.5,0.1c0.1,0.1,0.2,0.2,0.4,0.4c0.1,0.1,0.2,0.2,0.1,0.2C43.1,13.6,43.1,13.6,43,13.6z"/>
	<path class="st136" d="M43,13.6c0-0.1,0-0.2,0.1-0.3c1.5,0,2.9,0,4.4,0c0,0.1,0,0.2,0,0.3c-0.1,0-0.3,0.1-0.4,0.1
		C45.7,13.7,44.4,13.6,43,13.6z"/>
</g>
</svg>
